<svg xmlns="http://www.w3.org/2000/svg" xmlns:xlink="http://www.w3.org/1999/xlink" width="200" zoomAndPan="magnify" viewBox="0 0 150 149.999998" height="200" preserveAspectRatio="xMidYMid meet" version="1.0"><defs><clipPath id="5f70a196fd"><path d="M 19.625 14 L 130.625 14 L 130.625 136 L 19.625 136 Z M 19.625 14 " clip-rule="nonzero"/></clipPath><clipPath id="5be80c532a"><path d="M 19.625 14 L 129 14 L 129 106 L 19.625 106 Z M 19.625 14 " clip-rule="nonzero"/></clipPath><clipPath id="b8985fb5dd"><path d="M 73 43 L 130.625 43 L 130.625 106 L 73 106 Z M 73 43 " clip-rule="nonzero"/></clipPath></defs><rect x="-15" width="180" fill="#ffffff" y="-15" height="179.999997" fill-opacity="1"/><rect x="-15" width="180" fill="#ffffff" y="-15" height="179.999997" fill-opacity="1"/><rect x="-15" width="180" fill="#ffffff" y="-15" height="179.999997" fill-opacity="1"/><g clip-path="url(#5f70a196fd)"><path fill="#00c853" d="M 71.9375 14.929688 C 73.910156 13.828125 76.339844 13.828125 78.3125 14.929688 C 88.0625 20.386719 117.40625 36.804688 127.160156 42.261719 C 129.132812 43.359375 130.347656 45.402344 130.347656 47.609375 C 130.347656 58.519531 130.347656 91.355469 130.347656 102.265625 C 130.347656 104.472656 129.132812 106.511719 127.160156 107.613281 C 117.40625 113.070312 88.066406 129.488281 78.3125 134.945312 C 76.335938 136.046875 73.90625 136.046875 71.9375 134.945312 C 62.1875 129.488281 32.84375 113.070312 23.089844 107.613281 C 21.117188 106.511719 19.902344 104.472656 19.902344 102.265625 C 19.902344 91.355469 19.902344 58.519531 19.902344 47.609375 C 19.902344 45.402344 21.117188 43.363281 23.089844 42.261719 C 32.839844 36.804688 62.1875 20.386719 71.9375 14.929688 Z M 71.9375 14.929688 " fill-opacity="1" fill-rule="nonzero"/></g><g clip-path="url(#5be80c532a)"><path fill="#69f0ae" d="M 20.785156 105.078125 C 20.011719 104.046875 19.902344 103.066406 19.902344 101.75 C 19.902344 90.902344 19.902344 58.253906 19.902344 47.40625 C 19.902344 45.210938 21.113281 43.179688 23.082031 42.085938 C 32.796875 36.664062 62.042969 20.339844 71.757812 14.914062 C 73.726562 13.816406 76.390625 13.839844 78.359375 14.9375 C 88.078125 20.359375 117.222656 36.542969 126.9375 41.96875 C 127.722656 42.40625 128.320312 42.9375 128.855469 43.636719 Z M 20.785156 105.078125 " fill-opacity="1" fill-rule="nonzero"/></g><path fill="#ffffff" d="M 75.125 34.378906 C 52.660156 34.378906 34.433594 52.542969 34.433594 74.9375 C 34.433594 97.332031 52.660156 115.496094 75.125 115.496094 C 97.59375 115.496094 115.816406 97.332031 115.816406 74.9375 C 115.816406 52.542969 97.59375 34.378906 75.125 34.378906 Z M 75.125 95.214844 C 63.90625 95.214844 54.78125 86.121094 54.78125 74.9375 C 54.78125 63.753906 63.90625 54.660156 75.125 54.660156 C 86.34375 54.660156 95.46875 63.753906 95.46875 74.9375 C 95.46875 86.121094 86.34375 95.214844 75.125 95.214844 Z M 75.125 95.214844 " fill-opacity="1" fill-rule="nonzero"/><g clip-path="url(#b8985fb5dd)"><path fill="#00e676" d="M 128.851562 43.664062 C 130.351562 45.0625 130.320312 47.171875 130.320312 48.832031 C 130.320312 59.828125 130.230469 91.097656 130.347656 102.089844 C 130.359375 103.238281 129.980469 104.445312 129.410156 105.355469 L 73.941406 74.9375 Z M 128.851562 43.664062 " fill-opacity="1" fill-rule="nonzero"/></g><path fill="#ffffff" d="M 104.191406 63.351562 L 107.097656 63.351562 L 107.097656 86.523438 L 104.191406 86.523438 Z M 112.910156 63.351562 L 115.816406 63.351562 L 115.816406 86.523438 L 112.910156 86.523438 Z M 112.910156 63.351562 " fill-opacity="1" fill-rule="nonzero"/><path fill="#ffffff" d="M 98.375 77.835938 L 121.628906 77.835938 L 121.628906 80.730469 L 98.375 80.730469 Z M 98.375 69.144531 L 121.628906 69.144531 L 121.628906 72.039062 L 98.375 72.039062 Z M 98.375 69.144531 " fill-opacity="1" fill-rule="nonzero"/></svg>