<svg xmlns="http://www.w3.org/2000/svg" xmlns:xlink="http://www.w3.org/1999/xlink" width="500" zoomAndPan="magnify" viewBox="0 0 375 374.999991" height="500" preserveAspectRatio="xMidYMid meet" version="1.0"><defs><g/><clipPath id="1173fc5e55"><path d="M 137.839844 108 L 236.839844 108 L 236.839844 202.660156 L 137.839844 202.660156 Z M 137.839844 108 " clip-rule="nonzero"/></clipPath><clipPath id="405aabdb03"><path d="M 164 95.410156 L 211 95.410156 L 211 124 L 164 124 Z M 164 95.410156 " clip-rule="nonzero"/></clipPath><clipPath id="1dcaab8108"><path d="M 208 149 L 220.695312 149 L 220.695312 170 L 208 170 Z M 208 149 " clip-rule="nonzero"/></clipPath><clipPath id="73373aba55"><path d="M 157 174 L 217 174 L 217 203.917969 L 157 203.917969 Z M 157 174 " clip-rule="nonzero"/></clipPath><clipPath id="0c8d3185e2"><path d="M 162 141.667969 L 213 141.667969 L 213 147 L 162 147 Z M 162 141.667969 " clip-rule="nonzero"/></clipPath><clipPath id="fbd9c51932"><path d="M 44.265625 42.066406 L 330.765625 42.066406 L 330.765625 328.566406 L 44.265625 328.566406 Z M 44.265625 42.066406 " clip-rule="nonzero"/></clipPath><clipPath id="8450b535ab"><path d="M 187.515625 42.066406 C 108.402344 42.066406 44.265625 106.203125 44.265625 185.316406 C 44.265625 264.429688 108.402344 328.566406 187.515625 328.566406 C 266.632812 328.566406 330.765625 264.429688 330.765625 185.316406 C 330.765625 106.203125 266.632812 42.066406 187.515625 42.066406 " clip-rule="nonzero"/></clipPath></defs><rect x="-37.5" width="450" fill="#ffffff" y="-37.499999" height="449.999989" fill-opacity="1"/><rect x="-37.5" width="450" fill="#ffffff" y="-37.499999" height="449.999989" fill-opacity="1"/><rect x="-37.5" width="450" fill="#ffffff" y="-37.499999" height="449.999989" fill-opacity="1"/><g clip-path="url(#1173fc5e55)"><path fill="#ffa41a" d="M 233.667969 108.886719 L 207.78125 108.886719 C 209.300781 111.921875 210.3125 115.320312 210.675781 118.945312 C 212.042969 119.566406 213.003906 120.9375 213.003906 122.542969 C 213.003906 124.203125 211.984375 125.621094 210.542969 126.210938 C 210.078125 126.398438 209.574219 126.503906 209.042969 126.503906 C 208.390625 126.503906 207.78125 126.347656 207.238281 126.070312 C 205.960938 125.410156 205.082031 124.082031 205.082031 122.542969 C 205.082031 121.152344 205.800781 119.9375 206.886719 119.230469 C 206.488281 115.414062 205.28125 111.886719 203.464844 108.886719 L 171.253906 108.886719 C 169.433594 111.890625 168.222656 115.425781 167.828125 119.246094 C 168.898438 119.953125 169.609375 121.164062 169.609375 122.542969 C 169.609375 124.082031 168.730469 125.410156 167.453125 126.070312 C 166.910156 126.347656 166.296875 126.503906 165.648438 126.503906 C 165.117188 126.503906 164.613281 126.398438 164.152344 126.210938 C 162.707031 125.621094 161.691406 124.203125 161.691406 122.542969 C 161.691406 120.929688 162.65625 119.546875 164.039062 118.929688 C 164.402344 115.316406 165.410156 111.917969 166.929688 108.886719 L 141.011719 108.886719 L 137.839844 195.902344 C 137.839844 199.40625 140.679688 202.25 144.183594 202.25 L 230.496094 202.25 C 234 202.25 236.84375 199.40625 236.84375 195.902344 Z M 233.667969 108.886719 " fill-opacity="1" fill-rule="nonzero"/></g><g clip-path="url(#405aabdb03)"><path fill="#ffa41a" d="M 164.382812 121.898438 L 164.390625 121.96875 C 164.429688 122.710938 165.042969 123.292969 165.78125 123.292969 C 166.523438 123.292969 167.132812 122.710938 167.171875 121.96875 L 167.183594 121.792969 C 167.269531 109.011719 176.285156 98.644531 187.359375 98.644531 C 198.449219 98.644531 207.480469 109.050781 207.535156 121.867188 L 207.542969 121.96875 C 207.582031 122.710938 208.191406 123.292969 208.933594 123.292969 C 209.675781 123.292969 210.285156 122.710938 210.328125 121.964844 L 210.332031 121.851562 C 210.253906 107.492188 199.960938 95.84375 187.359375 95.84375 C 174.742188 95.84375 164.4375 107.519531 164.386719 121.871094 Z M 164.382812 121.898438 " fill-opacity="1" fill-rule="nonzero"/></g><path fill="#ffffff" d="M 198.792969 169.058594 L 205.84375 169.058594 C 207.078125 169.058594 207.796875 167.003906 207.265625 165.25 L 203.746094 153.621094 C 202.917969 150.882812 201.273438 149.140625 199.359375 149.140625 L 197.828125 149.140625 C 197.605469 149.136719 197.390625 149.183594 197.183594 149.277344 C 196.980469 149.375 196.804688 149.507812 196.65625 149.679688 C 196.511719 149.851562 196.40625 150.046875 196.347656 150.265625 C 196.285156 150.484375 196.273438 150.707031 196.308594 150.933594 C 196.433594 151.804688 196.507812 152.613281 196.558594 153.222656 L 197.472656 164.851562 C 197.539062 165.796875 197.539062 166.742188 197.472656 167.6875 C 197.453125 167.871094 197.472656 168.050781 197.53125 168.226562 C 197.59375 168.398438 197.6875 168.554688 197.8125 168.683594 C 197.941406 168.816406 198.089844 168.917969 198.261719 168.980469 C 198.433594 169.046875 198.609375 169.074219 198.792969 169.058594 Z M 198.792969 169.058594 " fill-opacity="1" fill-rule="nonzero"/><path fill="#ffffff" d="M 178.082031 153.222656 C 178.082031 152.613281 178.207031 151.804688 178.328125 150.933594 C 178.363281 150.707031 178.351562 150.484375 178.292969 150.265625 C 178.230469 150.046875 178.128906 149.851562 177.980469 149.679688 C 177.835938 149.507812 177.660156 149.375 177.457031 149.277344 C 177.25 149.183594 177.035156 149.136719 176.808594 149.140625 L 175.277344 149.140625 C 173.425781 149.140625 171.722656 150.882812 170.894531 153.621094 L 167.375 165.25 C 166.84375 167.003906 167.558594 169.058594 168.792969 169.058594 L 175.847656 169.058594 C 176.023438 169.058594 176.1875 169.023438 176.347656 168.953125 C 176.511719 168.882812 176.648438 168.78125 176.765625 168.652344 C 176.882812 168.519531 176.96875 168.371094 177.027344 168.203125 C 177.082031 168.035156 177.097656 167.863281 177.082031 167.6875 C 177.011719 166.742188 177.011719 165.796875 177.082031 164.851562 Z M 178.082031 153.222656 " fill-opacity="1" fill-rule="nonzero"/><path fill="#ffffff" d="M 160.398438 153.621094 L 154.628906 165.25 C 154.527344 165.449219 154.457031 165.660156 154.410156 165.878906 C 154.363281 166.097656 154.34375 166.320312 154.351562 166.546875 C 154.363281 166.769531 154.398438 166.988281 154.464844 167.203125 C 154.53125 167.417969 154.621094 167.621094 154.738281 167.8125 C 154.855469 168.003906 154.996094 168.175781 155.15625 168.332031 C 155.316406 168.488281 155.496094 168.617188 155.691406 168.726562 C 155.886719 168.835938 156.089844 168.917969 156.304688 168.976562 C 156.523438 169.03125 156.742188 169.058594 156.964844 169.058594 L 161.015625 169.058594 C 161.207031 169.054688 161.390625 169.011719 161.566406 168.929688 C 161.738281 168.847656 161.886719 168.730469 162.011719 168.582031 C 162.136719 168.4375 162.226562 168.269531 162.28125 168.082031 C 162.335938 167.898438 162.351562 167.707031 162.324219 167.515625 C 162.167969 166.246094 162.273438 165.003906 162.644531 163.78125 L 166.164062 152.152344 C 166.28125 151.777344 166.402344 151.417969 166.535156 151.070312 C 166.617188 150.859375 166.636719 150.640625 166.59375 150.421875 C 166.550781 150.199219 166.449219 150.003906 166.296875 149.84375 C 166.140625 149.679688 165.953125 149.570312 165.734375 149.519531 C 165.515625 149.464844 165.300781 149.476562 165.089844 149.550781 C 164.066406 149.882812 163.148438 150.402344 162.335938 151.109375 C 161.523438 151.816406 160.875 152.652344 160.398438 153.621094 Z M 160.398438 153.621094 " fill-opacity="1" fill-rule="nonzero"/><g clip-path="url(#1dcaab8108)"><path fill="#ffffff" d="M 220.007812 165.25 L 214.242188 153.621094 C 213.761719 152.652344 213.117188 151.816406 212.300781 151.109375 C 211.488281 150.402344 210.570312 149.882812 209.550781 149.550781 C 209.335938 149.476562 209.117188 149.464844 208.898438 149.519531 C 208.679688 149.574219 208.492188 149.6875 208.335938 149.855469 C 208.183594 150.019531 208.085938 150.214844 208.042969 150.441406 C 208.003906 150.664062 208.027344 150.882812 208.117188 151.09375 C 208.25 151.441406 208.371094 151.804688 208.488281 152.175781 L 212.019531 163.804688 C 212.390625 165.027344 212.496094 166.273438 212.339844 167.539062 C 212.316406 167.726562 212.332031 167.914062 212.386719 168.09375 C 212.441406 168.277344 212.53125 168.4375 212.652344 168.582031 C 212.773438 168.726562 212.917969 168.839844 213.089844 168.921875 C 213.257812 169.007812 213.4375 169.050781 213.625 169.058594 L 217.675781 169.058594 C 217.898438 169.058594 218.117188 169.03125 218.332031 168.976562 C 218.546875 168.917969 218.753906 168.835938 218.949219 168.726562 C 219.144531 168.617188 219.320312 168.488281 219.484375 168.332031 C 219.644531 168.175781 219.78125 168.003906 219.898438 167.8125 C 220.015625 167.621094 220.109375 167.417969 220.171875 167.203125 C 220.238281 166.988281 220.277344 166.769531 220.285156 166.546875 C 220.296875 166.320312 220.277344 166.097656 220.230469 165.878906 C 220.183594 165.660156 220.109375 165.449219 220.007812 165.25 Z M 220.007812 165.25 " fill-opacity="1" fill-rule="nonzero"/></g><path fill="#ffffff" d="M 190.925781 150.882812 C 190.863281 150.632812 190.761719 150.402344 190.625 150.1875 C 190.484375 149.972656 190.316406 149.789062 190.113281 149.628906 C 189.914062 149.472656 189.695312 149.351562 189.457031 149.269531 C 189.214844 149.183594 188.96875 149.140625 188.714844 149.140625 L 185.910156 149.140625 C 185.660156 149.136719 185.414062 149.179688 185.179688 149.261719 C 184.941406 149.34375 184.722656 149.460938 184.523438 149.617188 C 184.328125 149.773438 184.160156 149.957031 184.023438 150.167969 C 183.886719 150.382812 183.785156 150.609375 183.726562 150.855469 C 183.242188 152.796875 182.921875 154.765625 182.761719 156.757812 L 182.269531 162.984375 C 182.132812 164.476562 182.132812 165.972656 182.269531 167.464844 C 182.285156 167.6875 182.34375 167.894531 182.441406 168.09375 C 182.539062 168.292969 182.667969 168.464844 182.832031 168.613281 C 182.992188 168.761719 183.179688 168.875 183.382812 168.953125 C 183.589844 169.027344 183.800781 169.0625 184.023438 169.058594 L 190.617188 169.058594 C 190.832031 169.058594 191.039062 169.023438 191.238281 168.945312 C 191.4375 168.867188 191.617188 168.753906 191.777344 168.609375 C 191.9375 168.464844 192.0625 168.296875 192.160156 168.101562 C 192.253906 167.910156 192.3125 167.707031 192.332031 167.488281 C 192.46875 165.996094 192.46875 164.503906 192.332031 163.007812 L 191.816406 156.472656 C 191.679688 154.582031 191.382812 152.71875 190.925781 150.882812 Z M 190.925781 150.882812 " fill-opacity="1" fill-rule="nonzero"/><g clip-path="url(#73373aba55)"><path fill="#ffffff" d="M 216.960938 200.546875 L 216.960938 175.71875 C 216.957031 175.496094 216.914062 175.285156 216.828125 175.078125 C 216.742188 174.875 216.625 174.691406 216.46875 174.535156 C 216.3125 174.378906 216.132812 174.257812 215.929688 174.171875 C 215.722656 174.085938 215.511719 174.039062 215.292969 174.039062 L 159.347656 174.039062 C 159.125 174.039062 158.914062 174.085938 158.710938 174.171875 C 158.507812 174.257812 158.328125 174.378906 158.171875 174.535156 C 158.015625 174.691406 157.894531 174.875 157.808594 175.078125 C 157.726562 175.285156 157.679688 175.496094 157.679688 175.71875 L 157.679688 201.429688 C 157.679688 201.757812 157.742188 202.078125 157.867188 202.382812 C 157.992188 202.6875 158.171875 202.957031 158.402344 203.191406 C 158.636719 203.421875 158.902344 203.601562 159.203125 203.730469 C 159.507812 203.855469 159.824219 203.917969 160.148438 203.917969 C 160.476562 203.917969 160.792969 203.855469 161.09375 203.730469 C 161.398438 203.601562 161.664062 203.421875 161.894531 203.191406 C 162.128906 202.957031 162.304688 202.6875 162.433594 202.382812 C 162.558594 202.078125 162.621094 201.757812 162.621094 201.429688 L 162.621094 186.898438 C 162.613281 186.410156 162.652344 185.921875 162.738281 185.441406 C 162.824219 184.957031 162.953125 184.488281 163.128906 184.027344 C 163.304688 183.570312 163.519531 183.136719 163.777344 182.71875 C 164.035156 182.304688 164.332031 181.917969 164.664062 181.558594 C 164.996094 181.199219 165.359375 180.875 165.75 180.585938 C 166.144531 180.296875 166.5625 180.050781 167.003906 179.84375 C 167.441406 179.632812 167.898438 179.46875 168.371094 179.351562 C 168.84375 179.230469 169.320312 179.15625 169.808594 179.132812 C 170.304688 179.117188 170.796875 179.152344 171.285156 179.234375 C 171.773438 179.320312 172.25 179.453125 172.710938 179.632812 C 173.175781 179.816406 173.613281 180.039062 174.03125 180.308594 C 174.449219 180.582031 174.835938 180.890625 175.191406 181.238281 C 175.546875 181.585938 175.867188 181.96875 176.144531 182.378906 C 176.425781 182.792969 176.660156 183.230469 176.855469 183.691406 C 177.046875 184.148438 177.195312 184.625 177.292969 185.117188 C 177.390625 185.605469 177.441406 186.101562 177.441406 186.601562 L 177.441406 200.867188 C 177.441406 201.273438 177.515625 201.664062 177.671875 202.035156 C 177.824219 202.410156 178.042969 202.738281 178.324219 203.027344 C 178.609375 203.3125 178.9375 203.53125 179.308594 203.6875 C 179.679688 203.839844 180.0625 203.917969 180.464844 203.917969 L 213.613281 203.917969 C 214.054688 203.917969 214.484375 203.832031 214.894531 203.660156 C 215.304688 203.492188 215.664062 203.246094 215.980469 202.929688 C 216.292969 202.613281 216.535156 202.25 216.703125 201.835938 C 216.875 201.421875 216.960938 200.992188 216.960938 200.546875 Z M 207.078125 186.488281 C 207.078125 186.980469 207.03125 187.464844 206.9375 187.945312 C 206.84375 188.425781 206.703125 188.894531 206.515625 189.347656 C 206.328125 189.800781 206.101562 190.230469 205.832031 190.640625 C 205.558594 191.046875 205.253906 191.425781 204.910156 191.769531 C 204.566406 192.117188 204.191406 192.425781 203.785156 192.699219 C 203.382812 192.972656 202.953125 193.203125 202.503906 193.390625 C 202.054688 193.578125 201.59375 193.71875 201.113281 193.816406 C 200.636719 193.910156 200.15625 193.957031 199.667969 193.957031 L 194.730469 193.957031 C 194.242188 193.957031 193.761719 193.910156 193.285156 193.816406 C 192.804688 193.71875 192.34375 193.578125 191.894531 193.390625 C 191.445312 193.203125 191.015625 192.972656 190.613281 192.699219 C 190.207031 192.425781 189.832031 192.117188 189.488281 191.769531 C 189.144531 191.425781 188.839844 191.046875 188.566406 190.640625 C 188.296875 190.230469 188.070312 189.800781 187.882812 189.347656 C 187.699219 188.894531 187.558594 188.425781 187.460938 187.945312 C 187.367188 187.464844 187.320312 186.980469 187.320312 186.488281 C 187.320312 186 187.367188 185.511719 187.460938 185.03125 C 187.558594 184.550781 187.699219 184.082031 187.882812 183.628906 C 188.070312 183.175781 188.296875 182.746094 188.566406 182.339844 C 188.839844 181.929688 189.144531 181.554688 189.488281 181.207031 C 189.832031 180.859375 190.207031 180.550781 190.613281 180.277344 C 191.015625 180.003906 191.445312 179.773438 191.894531 179.585938 C 192.34375 179.398438 192.804688 179.257812 193.285156 179.164062 C 193.761719 179.066406 194.242188 179.019531 194.730469 179.019531 L 199.667969 179.019531 C 200.15625 179.019531 200.636719 179.066406 201.113281 179.164062 C 201.59375 179.257812 202.054688 179.398438 202.503906 179.585938 C 202.953125 179.773438 203.382812 180.003906 203.785156 180.277344 C 204.191406 180.550781 204.566406 180.859375 204.910156 181.207031 C 205.253906 181.554688 205.558594 181.929688 205.832031 182.339844 C 206.101562 182.746094 206.328125 183.175781 206.515625 183.628906 C 206.703125 184.082031 206.84375 184.550781 206.9375 185.03125 C 207.03125 185.511719 207.078125 186 207.078125 186.488281 Z M 207.078125 186.488281 " fill-opacity="1" fill-rule="nonzero"/></g><g clip-path="url(#0c8d3185e2)"><path fill="#ffffff" d="M 212.019531 144.160156 C 212.019531 143.828125 211.957031 143.511719 211.832031 143.207031 C 211.707031 142.902344 211.527344 142.632812 211.296875 142.398438 C 211.0625 142.164062 210.796875 141.984375 210.496094 141.859375 C 210.191406 141.730469 209.875 141.667969 209.550781 141.667969 L 165.089844 141.667969 C 164.761719 141.667969 164.445312 141.730469 164.144531 141.859375 C 163.84375 141.984375 163.574219 142.164062 163.34375 142.398438 C 163.113281 142.632812 162.933594 142.902344 162.808594 143.207031 C 162.683594 143.511719 162.621094 143.828125 162.621094 144.160156 C 162.621094 144.488281 162.683594 144.808594 162.808594 145.113281 C 162.933594 145.417969 163.113281 145.6875 163.34375 145.917969 C 163.574219 146.152344 163.84375 146.332031 164.144531 146.460938 C 164.445312 146.585938 164.761719 146.648438 165.089844 146.648438 L 209.550781 146.648438 C 209.875 146.648438 210.191406 146.585938 210.496094 146.460938 C 210.796875 146.332031 211.0625 146.152344 211.296875 145.917969 C 211.527344 145.6875 211.707031 145.417969 211.832031 145.113281 C 211.957031 144.808594 212.019531 144.488281 212.019531 144.160156 Z M 212.019531 144.160156 " fill-opacity="1" fill-rule="nonzero"/></g><g fill="#000000" fill-opacity="1"><g transform="translate(95.674923, 249.430745)"><g><path d="M 18.515625 -9.21875 L 18.609375 -15.21875 C 18.609375 -15.625 19.035156 -15.890625 19.890625 -16.015625 C 20.742188 -16.148438 21.445312 -16.21875 22 -16.21875 L 23.71875 -16.09375 C 24.832031 -15.914062 25.390625 -15.609375 25.390625 -15.171875 L 25.21875 -1.359375 C 24.632812 -0.953125 23.453125 -0.550781 21.671875 -0.15625 C 19.890625 0.238281 17.851562 0.4375 15.5625 0.4375 C 11.300781 0.4375 7.863281 -0.941406 5.25 -3.703125 C 2.632812 -6.460938 1.328125 -10.519531 1.328125 -15.875 C 1.328125 -20.425781 2.601562 -24.128906 5.15625 -26.984375 C 7.71875 -29.835938 11.257812 -31.265625 15.78125 -31.265625 C 17.84375 -31.265625 19.703125 -31.066406 21.359375 -30.671875 C 23.023438 -30.273438 24.164062 -29.738281 24.78125 -29.0625 C 24.8125 -28.820312 24.828125 -28.378906 24.828125 -27.734375 C 24.828125 -27.085938 24.601562 -26.164062 24.15625 -24.96875 C 23.71875 -23.78125 23.21875 -22.890625 22.65625 -22.296875 C 22.101562 -21.710938 21.703125 -21.421875 21.453125 -21.421875 C 21.203125 -21.421875 20.9375 -21.53125 20.65625 -21.75 C 20.375 -21.976562 19.820312 -22.21875 19 -22.46875 C 18.175781 -22.71875 17.382812 -22.84375 16.625 -22.84375 C 14.800781 -22.84375 13.320312 -22.253906 12.1875 -21.078125 C 11.0625 -19.898438 10.5 -18.078125 10.5 -15.609375 C 10.5 -13.140625 11.078125 -11.265625 12.234375 -9.984375 C 13.398438 -8.703125 14.738281 -8.0625 16.25 -8.0625 C 17.757812 -8.0625 18.515625 -8.445312 18.515625 -9.21875 Z M 18.515625 -9.21875 "/></g></g></g><g fill="#000000" fill-opacity="1"><g transform="translate(123.049015, 249.430745)"><g><path d="M 10.625 -0.625 C 10.625 -0.144531 9.226562 0.09375 6.4375 0.09375 C 3.613281 0.09375 2.203125 -0.128906 2.203125 -0.578125 L 2.203125 -29.328125 C 2.203125 -30.347656 2.75 -30.859375 3.84375 -30.859375 L 12.265625 -30.859375 C 19.992188 -30.859375 23.859375 -27.847656 23.859375 -21.828125 C 23.859375 -20.003906 23.503906 -18.347656 22.796875 -16.859375 C 22.085938 -15.378906 21.085938 -14.195312 19.796875 -13.3125 L 25.359375 -4.0625 C 25.117188 -3.351562 24.351562 -2.539062 23.0625 -1.625 C 21.300781 -0.363281 19.84375 0.265625 18.6875 0.265625 C 17.539062 0.265625 16.691406 -0.144531 16.140625 -0.96875 L 12 -10.625 L 10.625 -10.625 Z M 10.625 -23.0625 L 10.625 -16.453125 L 10.84375 -16.453125 C 13.632812 -16.453125 15.03125 -17.613281 15.03125 -19.9375 C 15.03125 -20.988281 14.757812 -21.769531 14.21875 -22.28125 C 13.675781 -22.800781 12.785156 -23.0625 11.546875 -23.0625 Z M 10.625 -23.0625 "/></g></g></g><g fill="#000000" fill-opacity="1"><g transform="translate(149.056609, 249.430745)"><g><path d="M 15.3125 0.4375 C 11.1875 0.4375 7.820312 -0.910156 5.21875 -3.609375 C 2.625 -6.316406 1.328125 -10.265625 1.328125 -15.453125 C 1.328125 -20.640625 2.640625 -24.570312 5.265625 -27.25 C 7.898438 -29.925781 11.296875 -31.265625 15.453125 -31.265625 C 19.609375 -31.265625 22.960938 -29.945312 25.515625 -27.3125 C 28.078125 -24.6875 29.359375 -20.703125 29.359375 -15.359375 C 29.359375 -10.023438 28.050781 -6.054688 25.4375 -3.453125 C 22.820312 -0.859375 19.445312 0.4375 15.3125 0.4375 Z M 15.34375 -22.796875 C 13.9375 -22.796875 12.753906 -22.148438 11.796875 -20.859375 C 10.835938 -19.566406 10.359375 -17.75 10.359375 -15.40625 C 10.359375 -13.070312 10.8125 -11.28125 11.71875 -10.03125 C 12.632812 -8.78125 13.832031 -8.15625 15.3125 -8.15625 C 16.800781 -8.15625 18.007812 -8.785156 18.9375 -10.046875 C 19.863281 -11.316406 20.328125 -13.125 20.328125 -15.46875 C 20.328125 -17.820312 19.847656 -19.628906 18.890625 -20.890625 C 17.941406 -22.160156 16.757812 -22.796875 15.34375 -22.796875 Z M 15.34375 -22.796875 "/></g></g></g><g fill="#000000" fill-opacity="1"><g transform="translate(179.736746, 249.430745)"><g><path d="M 14.8125 -31.265625 C 16.957031 -31.265625 18.84375 -30.960938 20.46875 -30.359375 C 22.101562 -29.753906 22.921875 -28.9375 22.921875 -27.90625 C 22.921875 -26.882812 22.53125 -25.613281 21.75 -24.09375 C 20.976562 -22.582031 20.328125 -21.828125 19.796875 -21.828125 C 19.648438 -21.828125 19.476562 -21.90625 19.28125 -22.0625 C 19.09375 -22.226562 18.65625 -22.40625 17.96875 -22.59375 C 17.28125 -22.789062 16.6875 -22.890625 16.1875 -22.890625 C 14.476562 -22.890625 13.101562 -22.285156 12.0625 -21.078125 C 11.019531 -19.867188 10.5 -18.019531 10.5 -15.53125 C 10.5 -13.050781 11.035156 -11.207031 12.109375 -10 C 13.179688 -8.800781 14.539062 -8.203125 16.1875 -8.203125 C 16.863281 -8.203125 17.617188 -8.296875 18.453125 -8.484375 C 19.285156 -8.679688 19.878906 -8.953125 20.234375 -9.296875 C 20.296875 -9.359375 20.414062 -9.390625 20.59375 -9.390625 C 20.769531 -9.390625 21.097656 -9.054688 21.578125 -8.390625 C 22.066406 -7.734375 22.515625 -6.867188 22.921875 -5.796875 C 23.335938 -4.722656 23.546875 -3.894531 23.546875 -3.3125 C 23.546875 -2.164062 22.660156 -1.253906 20.890625 -0.578125 C 19.128906 0.0976562 17.046875 0.4375 14.640625 0.4375 C 10.753906 0.4375 7.5625 -0.925781 5.0625 -3.65625 C 2.570312 -6.394531 1.328125 -10.253906 1.328125 -15.234375 C 1.328125 -20.210938 2.613281 -24.128906 5.1875 -26.984375 C 7.757812 -29.835938 10.96875 -31.265625 14.8125 -31.265625 Z M 14.8125 -31.265625 "/></g></g></g><g fill="#000000" fill-opacity="1"><g transform="translate(204.465998, 249.430745)"><g><path d="M 16.53125 -18.609375 C 17.09375 -18.609375 17.375 -17.578125 17.375 -15.515625 C 17.375 -14.898438 17.304688 -14.171875 17.171875 -13.328125 C 17.035156 -12.492188 16.796875 -12.078125 16.453125 -12.078125 L 10.84375 -12.078125 L 10.84375 -7.671875 L 18.953125 -7.671875 C 19.453125 -7.671875 19.789062 -7.023438 19.96875 -5.734375 C 20.0625 -5.171875 20.109375 -4.570312 20.109375 -3.9375 C 20.109375 -3.3125 20.019531 -2.5 19.84375 -1.5 C 19.664062 -0.5 19.367188 0 18.953125 0 L 3.875 0 C 2.757812 0 2.203125 -0.453125 2.203125 -1.359375 L 2.203125 -29.71875 C 2.203125 -30.476562 2.539062 -30.859375 3.21875 -30.859375 L 19 -30.859375 C 19.625 -30.859375 19.9375 -29.554688 19.9375 -26.953125 C 19.9375 -24.359375 19.625 -23.0625 19 -23.0625 L 10.84375 -23.0625 L 10.84375 -18.609375 Z M 16.53125 -18.609375 "/></g></g></g><g fill="#000000" fill-opacity="1"><g transform="translate(226.197765, 249.430745)"><g><path d="M 10.625 -0.625 C 10.625 -0.144531 9.226562 0.09375 6.4375 0.09375 C 3.613281 0.09375 2.203125 -0.128906 2.203125 -0.578125 L 2.203125 -29.328125 C 2.203125 -30.347656 2.75 -30.859375 3.84375 -30.859375 L 12.265625 -30.859375 C 19.992188 -30.859375 23.859375 -27.847656 23.859375 -21.828125 C 23.859375 -20.003906 23.503906 -18.347656 22.796875 -16.859375 C 22.085938 -15.378906 21.085938 -14.195312 19.796875 -13.3125 L 25.359375 -4.0625 C 25.117188 -3.351562 24.351562 -2.539062 23.0625 -1.625 C 21.300781 -0.363281 19.84375 0.265625 18.6875 0.265625 C 17.539062 0.265625 16.691406 -0.144531 16.140625 -0.96875 L 12 -10.625 L 10.625 -10.625 Z M 10.625 -23.0625 L 10.625 -16.453125 L 10.84375 -16.453125 C 13.632812 -16.453125 15.03125 -17.613281 15.03125 -19.9375 C 15.03125 -20.988281 14.757812 -21.769531 14.21875 -22.28125 C 13.675781 -22.800781 12.785156 -23.0625 11.546875 -23.0625 Z M 10.625 -23.0625 "/></g></g></g><g fill="#000000" fill-opacity="1"><g transform="translate(252.205359, 249.430745)"><g><path d="M 17.546875 -29.40625 C 17.929688 -30.4375 19.8125 -30.953125 23.1875 -30.953125 C 24.039062 -30.953125 25.046875 -30.890625 26.203125 -30.765625 C 27.367188 -30.648438 27.910156 -30.507812 27.828125 -30.34375 L 18.65625 -11.90625 L 18.65625 -1.140625 C 18.65625 -0.640625 17.84375 -0.289062 16.21875 -0.09375 C 15.394531 0.03125 14.585938 0.09375 13.796875 0.09375 C 13.003906 0.09375 12.210938 0.046875 11.421875 -0.046875 C 9.804688 -0.253906 9 -0.617188 9 -1.140625 L 9 -11.640625 L -0.484375 -30.25 C -0.597656 -30.425781 0.00390625 -30.59375 1.328125 -30.75 C 2.648438 -30.914062 3.765625 -31 4.671875 -31 C 8.285156 -31 10.269531 -30.46875 10.625 -29.40625 L 13.84375 -20.421875 Z M 17.546875 -29.40625 "/></g></g></g><g fill="#000000" fill-opacity="1"><g transform="translate(127.94325, 276.072872)"><g><path d="M 5.125 0.117188 C 7.609375 0.117188 9.625 -1.898438 9.625 -4.382812 C 9.625 -6.863281 7.609375 -8.878906 5.125 -8.878906 C 2.644531 -8.878906 0.628906 -6.863281 0.628906 -4.382812 C 0.628906 -1.898438 2.644531 0.117188 5.125 0.117188 Z M 5.125 -1.300781 C 3.402344 -1.300781 2.042969 -2.644531 2.042969 -4.382812 C 2.042969 -6.121094 3.402344 -7.464844 5.125 -7.464844 C 6.863281 -7.464844 8.207031 -6.121094 8.207031 -4.382812 C 8.207031 -2.644531 6.863281 -1.300781 5.125 -1.300781 Z M 5.125 -1.300781 "/></g></g></g><g fill="#000000" fill-opacity="1"><g transform="translate(141.924239, 276.072872)"><g><path d="M 7.257812 -8.765625 L 7.257812 -2.265625 L 2.394531 -8.765625 L 0.964844 -8.765625 L 0.964844 0 L 2.394531 0 L 2.394531 -6.515625 L 7.246094 0 L 8.675781 0 L 8.675781 -8.765625 Z M 7.257812 -8.765625 "/></g></g></g><g fill="#000000" fill-opacity="1"><g transform="translate(155.291835, 276.072872)"><g><path d="M 2.394531 -1.328125 L 2.394531 -8.765625 L 0.964844 -8.765625 L 0.964844 0 L 5.476562 0 L 5.476562 -1.328125 Z M 2.394531 -1.328125 "/></g></g></g><g fill="#000000" fill-opacity="1"><g transform="translate(164.570183, 276.072872)"><g><path d="M 1.035156 0 L 2.46875 0 L 2.46875 -8.765625 L 1.035156 -8.765625 Z M 1.035156 0 "/></g></g></g><g fill="#000000" fill-opacity="1"><g transform="translate(171.789305, 276.072872)"><g><path d="M 7.257812 -8.765625 L 7.257812 -2.265625 L 2.394531 -8.765625 L 0.964844 -8.765625 L 0.964844 0 L 2.394531 0 L 2.394531 -6.515625 L 7.246094 0 L 8.675781 0 L 8.675781 -8.765625 Z M 7.257812 -8.765625 "/></g></g></g><g fill="#000000" fill-opacity="1"><g transform="translate(185.156901, 276.072872)"><g><path d="M 6.0625 -7.464844 L 6.0625 -8.765625 L 1.035156 -8.765625 L 1.035156 0 L 6.0625 0 L 6.0625 -1.300781 L 2.46875 -1.300781 L 2.46875 -3.722656 L 5.578125 -3.722656 L 5.578125 -5.039062 L 2.46875 -5.039062 L 2.46875 -7.464844 Z M 6.0625 -7.464844 "/></g></g></g><g fill="#000000" fill-opacity="1"><g transform="translate(195.691239, 276.072872)"><g/></g></g><g fill="#000000" fill-opacity="1"><g transform="translate(202.924974, 276.072872)"><g><path d="M 3.402344 0.117188 C 4.980469 0.117188 6.265625 -0.816406 6.265625 -2.394531 C 6.265625 -5.507812 2.117188 -4.746094 2.117188 -6.542969 C 2.117188 -7.230469 2.660156 -7.550781 3.300781 -7.550781 C 3.886719 -7.550781 4.410156 -7.289062 4.804688 -6.792969 L 5.8125 -7.710938 C 5.257812 -8.398438 4.339844 -8.878906 3.300781 -8.878906 C 1.929688 -8.878906 0.6875 -8.019531 0.6875 -6.441406 C 0.6875 -3.535156 4.835938 -4.25 4.835938 -2.394531 C 4.835938 -1.679688 4.234375 -1.257812 3.417969 -1.257812 C 2.527344 -1.257812 1.855469 -1.753906 1.546875 -2.496094 L 0.320312 -1.753906 C 0.832031 -0.65625 2 0.117188 3.402344 0.117188 Z M 3.402344 0.117188 "/></g></g></g><g fill="#000000" fill-opacity="1"><g transform="translate(213.284057, 276.072872)"><g><path d="M 6.585938 -8.765625 L 6.585938 -5.054688 L 2.394531 -5.054688 L 2.394531 -8.765625 L 0.964844 -8.765625 L 0.964844 0 L 2.394531 0 L 2.394531 -3.722656 L 6.585938 -3.722656 L 6.585938 0 L 8.019531 0 L 8.019531 -8.765625 Z M 6.585938 -8.765625 "/></g></g></g><g fill="#000000" fill-opacity="1"><g transform="translate(225.99446, 276.072872)"><g><path d="M 5.125 0.117188 C 7.609375 0.117188 9.625 -1.898438 9.625 -4.382812 C 9.625 -6.863281 7.609375 -8.878906 5.125 -8.878906 C 2.644531 -8.878906 0.628906 -6.863281 0.628906 -4.382812 C 0.628906 -1.898438 2.644531 0.117188 5.125 0.117188 Z M 5.125 -1.300781 C 3.402344 -1.300781 2.042969 -2.644531 2.042969 -4.382812 C 2.042969 -6.121094 3.402344 -7.464844 5.125 -7.464844 C 6.863281 -7.464844 8.207031 -6.121094 8.207031 -4.382812 C 8.207031 -2.644531 6.863281 -1.300781 5.125 -1.300781 Z M 5.125 -1.300781 "/></g></g></g><g fill="#000000" fill-opacity="1"><g transform="translate(239.975454, 276.072872)"><g><path d="M 4.394531 -8.765625 L 0.964844 -8.765625 L 0.964844 0 L 2.394531 0 L 2.394531 -3.722656 L 4.394531 -3.722656 C 5.8125 -3.722656 6.921875 -4.804688 6.921875 -6.222656 C 6.921875 -7.625 5.8125 -8.765625 4.394531 -8.765625 Z M 4.191406 -4.964844 L 2.394531 -4.964844 L 2.394531 -7.464844 L 4.191406 -7.464844 C 4.953125 -7.464844 5.519531 -6.96875 5.519531 -6.207031 C 5.519531 -5.433594 4.953125 -4.964844 4.191406 -4.964844 Z M 4.191406 -4.964844 "/></g></g></g><g clip-path="url(#fbd9c51932)"><g clip-path="url(#8450b535ab)"><path stroke-linecap="butt" transform="matrix(0.750092, 0, 0, 0.750092, 44.26709, 42.066799)" fill="none" stroke-linejoin="miter" d="M 190.974629 -0.000523386 C 85.503188 -0.000523386 -0.00195255 85.504617 -0.00195255 190.976059 C -0.00195255 296.4475 85.503188 381.952641 190.974629 381.952641 C 296.451279 381.952641 381.951211 296.4475 381.951211 190.976059 C 381.951211 85.504617 296.451279 -0.000523386 190.974629 -0.000523386 " stroke="#000000" stroke-width="4" stroke-opacity="1" stroke-miterlimit="4"/></g></g></svg>