<svg xmlns="http://www.w3.org/2000/svg" xmlns:xlink="http://www.w3.org/1999/xlink" width="500" zoomAndPan="magnify" viewBox="0 0 375 374.999991" height="500" preserveAspectRatio="xMidYMid meet" version="1.0"><defs><g/><clipPath id="acf2e59820"><path d="M 44.265625 42.066406 L 330.765625 42.066406 L 330.765625 328.566406 L 44.265625 328.566406 Z M 44.265625 42.066406 " clip-rule="nonzero"/></clipPath><clipPath id="e8782418e4"><path d="M 187.515625 42.066406 C 108.402344 42.066406 44.265625 106.203125 44.265625 185.316406 C 44.265625 264.429688 108.402344 328.566406 187.515625 328.566406 C 266.632812 328.566406 330.765625 264.429688 330.765625 185.316406 C 330.765625 106.203125 266.632812 42.066406 187.515625 42.066406 " clip-rule="nonzero"/></clipPath><clipPath id="afb8158eef"><path d="M 258 147.738281 L 310 147.738281 L 310 222.738281 L 258 222.738281 Z M 258 147.738281 " clip-rule="nonzero"/></clipPath><clipPath id="30b2ee5ee4"><path d="M 155 164 L 226 164 L 226 200.949219 L 155 200.949219 Z M 155 164 " clip-rule="nonzero"/></clipPath><clipPath id="3c9ada62a2"><path d="M 183 192 L 198 192 L 198 200.949219 L 183 200.949219 Z M 183 192 " clip-rule="nonzero"/></clipPath><clipPath id="d664f9db71"><path d="M 173 183 L 207 183 L 207 200.949219 L 173 200.949219 Z M 173 183 " clip-rule="nonzero"/></clipPath><clipPath id="20690a4b82"><path d="M 108.152344 136.449219 L 253.652344 136.449219 L 253.652344 200.949219 L 108.152344 200.949219 Z M 108.152344 136.449219 " clip-rule="nonzero"/></clipPath></defs><rect x="-37.5" width="450" fill="#ffffff" y="-37.499999" height="449.999989" fill-opacity="1"/><rect x="-37.5" width="450" fill="#ffffff" y="-37.499999" height="449.999989" fill-opacity="1"/><rect x="-37.5" width="450" fill="#ffffff" y="-37.499999" height="449.999989" fill-opacity="1"/><g clip-path="url(#acf2e59820)"><g clip-path="url(#e8782418e4)"><path stroke-linecap="butt" transform="matrix(0.750092, 0, 0, 0.750092, 44.26709, 42.066799)" fill="none" stroke-linejoin="miter" d="M 190.974629 -0.000523386 C 85.503188 -0.000523386 -0.00195255 85.504617 -0.00195255 190.976059 C -0.00195255 296.4475 85.503188 381.952641 190.974629 381.952641 C 296.451279 381.952641 381.951211 296.4475 381.951211 190.976059 C 381.951211 85.504617 296.451279 -0.000523386 190.974629 -0.000523386 " stroke="#498536" stroke-width="4" stroke-opacity="1" stroke-miterlimit="4"/></g></g><g clip-path="url(#afb8158eef)"><path fill="#498536" d="M 292.109375 147.742188 C 291.46875 147.75 290.890625 148.121094 290.628906 148.703125 C 287.402344 155.835938 282.246094 160.433594 276.738281 165.164062 C 271.238281 169.894531 265.390625 174.75 261.417969 182.375 C 258.210938 188.53125 257.558594 194.722656 258.804688 200.699219 C 260.050781 206.671875 263.128906 212.425781 267.265625 218.023438 C 267.804688 218.75 268.824219 218.902344 269.550781 218.367188 C 270.277344 217.828125 270.433594 216.8125 269.894531 216.085938 C 265.933594 210.726562 263.113281 205.363281 262 200.035156 C 260.890625 194.707031 261.433594 189.414062 264.316406 183.878906 C 267.941406 176.910156 273.339844 172.378906 278.867188 167.628906 C 283.453125 163.6875 288.109375 159.558594 291.597656 153.796875 C 294.027344 162.132812 297.953125 170.890625 301.113281 179.453125 C 304.792969 189.425781 307.34375 199.0625 305.589844 207.136719 C 305.585938 207.152344 305.585938 207.167969 305.582031 207.179688 C 304.460938 213.105469 299.871094 217.523438 295.289062 218.785156 C 293 219.417969 290.773438 219.28125 288.886719 218.292969 C 287.019531 217.316406 285.394531 215.472656 284.375 212.285156 C 281.785156 196.855469 287.835938 183.011719 290.558594 167.167969 C 290.710938 166.285156 290.113281 165.441406 289.226562 165.285156 C 288.335938 165.132812 287.496094 165.730469 287.339844 166.617188 C 284.699219 182.007812 278.335938 196.359375 281.179688 212.964844 C 281.1875 213.039062 281.210938 213.109375 281.230469 213.175781 C 282.445312 217.0625 284.65625 219.757812 287.375 221.179688 C 290.097656 222.601562 293.222656 222.738281 296.167969 221.925781 C 302.042969 220.304688 307.414062 214.996094 308.789062 207.808594 C 310.78125 198.605469 307.917969 188.460938 304.183594 178.328125 C 300.445312 168.195312 295.765625 158.011719 293.714844 149.011719 C 293.539062 148.265625 292.871094 147.738281 292.109375 147.742188 Z M 292.109375 147.742188 " fill-opacity="1" fill-rule="nonzero"/></g><path fill="#498536" d="M 292.828125 195.316406 C 290.605469 195.335938 288.449219 196.226562 286.847656 197.820312 C 284.898438 199.769531 284.007812 202.535156 284.453125 205.257812 C 284.523438 205.699219 284.878906 206.054688 285.324219 206.125 C 288.042969 206.570312 290.820312 205.679688 292.769531 203.730469 C 294.722656 201.785156 295.613281 199.019531 295.167969 196.296875 C 295.132812 196.078125 295.023438 195.875 294.867188 195.714844 C 294.792969 195.644531 294.691406 195.613281 294.597656 195.5625 C 294.542969 195.503906 294.472656 195.464844 294.390625 195.445312 C 294.359375 195.433594 294.324219 195.429688 294.292969 195.421875 C 293.953125 195.367188 293.609375 195.332031 293.273438 195.316406 C 293.125 195.320312 292.976562 195.316406 292.828125 195.316406 Z M 292.960938 197.464844 C 293.015625 197.464844 293.074219 197.464844 293.125 197.46875 C 293.183594 199.238281 292.546875 200.972656 291.269531 202.246094 C 290.367188 203.144531 289.234375 203.738281 288.027344 203.992188 L 290.808594 201.214844 C 291.21875 200.808594 291.21875 200.132812 290.808594 199.722656 C 290.398438 199.3125 289.722656 199.3125 289.3125 199.722656 L 286.640625 202.390625 C 286.910156 201.246094 287.488281 200.179688 288.34375 199.320312 C 289.574219 198.085938 291.242188 197.449219 292.960938 197.464844 Z M 292.960938 197.464844 " fill-opacity="1" fill-rule="nonzero"/><path fill="#498536" d="M 293.488281 185.257812 C 291.980469 185.273438 290.527344 185.871094 289.445312 186.949219 C 288.128906 188.265625 287.523438 190.136719 287.828125 191.976562 C 287.878906 192.277344 288.113281 192.519531 288.417969 192.566406 C 290.253906 192.867188 292.128906 192.261719 293.453125 190.949219 C 294.769531 189.636719 295.371094 187.765625 295.070312 185.921875 C 295.042969 185.773438 294.972656 185.636719 294.867188 185.53125 C 294.8125 185.476562 294.746094 185.457031 294.6875 185.425781 C 294.644531 185.386719 294.597656 185.359375 294.542969 185.34375 C 294.523438 185.339844 294.496094 185.335938 294.476562 185.328125 C 294.246094 185.292969 294.015625 185.269531 293.785156 185.257812 C 293.6875 185.261719 293.585938 185.257812 293.488281 185.257812 Z M 293.574219 186.710938 C 293.609375 186.710938 293.652344 186.710938 293.6875 186.710938 C 293.726562 187.90625 293.292969 189.078125 292.4375 189.9375 C 291.828125 190.546875 291.066406 190.949219 290.246094 191.117188 L 292.125 189.242188 C 292.402344 188.964844 292.402344 188.503906 292.125 188.230469 C 291.847656 187.953125 291.386719 187.953125 291.109375 188.230469 L 289.304688 190.035156 C 289.488281 189.257812 289.875 188.535156 290.457031 187.957031 C 291.289062 187.136719 292.417969 186.699219 293.574219 186.710938 Z M 293.574219 186.710938 " fill-opacity="1" fill-rule="nonzero"/><path fill="#498536" d="M 295.773438 173.75 C 294 173.765625 292.277344 174.476562 291.003906 175.746094 C 289.445312 177.300781 288.734375 179.507812 289.09375 181.675781 C 289.148438 182.03125 289.429688 182.3125 289.789062 182.371094 C 291.960938 182.726562 294.175781 182.015625 295.726562 180.460938 C 297.285156 178.90625 297.996094 176.703125 297.636719 174.535156 C 297.605469 174.363281 297.523438 174.199219 297.394531 174.070312 C 297.339844 174.015625 297.257812 173.988281 297.1875 173.949219 C 297.140625 173.902344 297.082031 173.871094 297.015625 173.851562 C 296.992188 173.847656 296.964844 173.839844 296.941406 173.835938 C 296.667969 173.789062 296.398438 173.765625 296.125 173.753906 C 296.007812 173.75 295.890625 173.742188 295.773438 173.75 Z M 295.878906 175.457031 C 295.925781 175.457031 295.96875 175.457031 296.011719 175.460938 C 296.058594 176.871094 295.550781 178.253906 294.539062 179.265625 C 293.820312 179.980469 292.917969 180.457031 291.949219 180.660156 L 294.167969 178.449219 C 294.496094 178.121094 294.496094 177.582031 294.167969 177.257812 C 293.839844 176.929688 293.304688 176.929688 292.976562 177.257812 L 290.839844 179.386719 C 291.054688 178.472656 291.515625 177.625 292.203125 176.9375 C 293.179688 175.953125 294.511719 175.445312 295.878906 175.457031 Z M 295.878906 175.457031 " fill-opacity="1" fill-rule="nonzero"/><path fill="#498536" d="M 273.152344 194.496094 C 273.058594 194.496094 272.96875 194.507812 272.878906 194.535156 C 272.664062 194.589844 272.472656 194.710938 272.328125 194.886719 C 270.582031 197.019531 269.964844 199.863281 270.679688 202.519531 C 271.390625 205.179688 273.347656 207.335938 275.929688 208.308594 C 276.355469 208.46875 276.835938 208.339844 277.121094 207.992188 C 278.867188 205.859375 279.484375 203.015625 278.769531 200.359375 C 278.058594 197.699219 276.101562 195.539062 273.519531 194.570312 C 273.492188 194.558594 273.460938 194.550781 273.429688 194.539062 C 273.335938 194.507812 273.246094 194.496094 273.152344 194.496094 Z M 273.511719 196.910156 C 275.078125 197.746094 276.261719 199.167969 276.726562 200.898438 C 277.039062 202.070312 277.003906 203.28125 276.667969 204.414062 L 275.6875 200.761719 C 275.539062 200.203125 274.949219 199.867188 274.390625 200.015625 C 273.832031 200.164062 273.496094 200.75 273.644531 201.308594 L 274.664062 205.101562 C 273.742188 204.28125 273.058594 203.195312 272.726562 201.96875 C 272.253906 200.234375 272.566406 198.414062 273.511719 196.910156 Z M 273.511719 196.910156 " fill-opacity="1" fill-rule="nonzero"/><path fill="#498536" d="M 275.835938 182.042969 C 275.804688 182.042969 275.78125 182.046875 275.75 182.050781 C 275.667969 182.046875 275.589844 182.03125 275.511719 182.050781 C 275.34375 182.097656 275.195312 182.191406 275.082031 182.328125 C 273.726562 183.984375 273.25 186.195312 273.800781 188.257812 C 274.355469 190.324219 275.878906 192.003906 277.886719 192.757812 C 278.214844 192.882812 278.585938 192.785156 278.8125 192.515625 C 280.167969 190.855469 280.644531 188.648438 280.09375 186.582031 C 279.539062 184.515625 278.019531 182.839844 276.011719 182.082031 C 275.984375 182.074219 275.964844 182.066406 275.9375 182.058594 C 275.90625 182.046875 275.871094 182.042969 275.835938 182.042969 Z M 276.003906 183.902344 C 277.222656 184.550781 278.140625 185.652344 278.503906 187 C 278.75 187.910156 278.71875 188.851562 278.457031 189.730469 L 277.695312 186.894531 C 277.578125 186.460938 277.121094 186.199219 276.6875 186.3125 C 276.25 186.429688 275.988281 186.882812 276.101562 187.320312 L 276.890625 190.269531 C 276.175781 189.628906 275.648438 188.785156 275.390625 187.835938 C 275.03125 186.484375 275.277344 185.074219 276.003906 183.902344 Z M 276.003906 183.902344 " fill-opacity="1" fill-rule="nonzero"/><path fill="#498536" d="M 279.230469 170.164062 C 279.160156 170.164062 279.09375 170.175781 279.023438 170.191406 C 278.859375 170.230469 278.710938 170.328125 278.601562 170.460938 C 277.269531 172.085938 276.804688 174.253906 277.347656 176.28125 C 277.890625 178.308594 279.382812 179.949219 281.347656 180.691406 C 281.671875 180.816406 282.039062 180.71875 282.253906 180.445312 C 283.585938 178.820312 284.050781 176.652344 283.507812 174.628906 C 282.964844 172.597656 281.476562 170.957031 279.507812 170.214844 C 279.492188 170.210938 279.484375 170.207031 279.46875 170.199219 C 279.457031 170.195312 279.449219 170.195312 279.4375 170.191406 C 279.375 170.175781 279.304688 170.164062 279.230469 170.164062 Z M 279.507812 172.003906 C 280.703125 172.640625 281.605469 173.722656 281.957031 175.046875 C 282.199219 175.9375 282.167969 176.863281 281.910156 177.722656 L 281.164062 174.941406 C 281.050781 174.515625 280.601562 174.253906 280.175781 174.371094 C 279.75 174.484375 279.488281 174.933594 279.605469 175.359375 L 280.386719 178.253906 C 279.683594 177.625 279.160156 176.800781 278.910156 175.867188 C 278.550781 174.542969 278.792969 173.148438 279.507812 172.003906 Z M 279.507812 172.003906 " fill-opacity="1" fill-rule="nonzero"/><g fill="#000000" fill-opacity="1"><g transform="translate(73.594471, 227.299761)"><g><path d="M 9.140625 0 L 2.15625 0 L 2.15625 -28.21875 L 9.140625 -28.21875 L 9.140625 -17.453125 L 19.03125 -17.453125 L 19.03125 -28.21875 L 26.015625 -28.21875 L 26.015625 0 L 19.03125 0 L 19.03125 -11.15625 L 9.140625 -11.15625 Z M 9.140625 0 "/></g></g></g><g fill="#000000" fill-opacity="1"><g transform="translate(102.027163, 227.299761)"><g><path d="M 21.59375 -6.53125 L 21.59375 0 L 2.15625 0 L 2.15625 -28.21875 L 21.1875 -28.21875 L 21.1875 -21.921875 L 9.140625 -21.921875 L 9.140625 -17.234375 L 19.53125 -17.234375 L 19.53125 -11.390625 L 9.140625 -11.390625 L 9.140625 -6.53125 Z M 21.59375 -6.53125 "/></g></g></g><g fill="#000000" fill-opacity="1"><g transform="translate(125.016268, 227.299761)"><g><path d="M 9.140625 -9.09375 L 9.140625 0 L 2.15625 0 L 2.15625 -28.21875 L 12.46875 -28.21875 C 16.8125 -28.21875 19.898438 -27.484375 21.734375 -26.015625 C 23.566406 -24.546875 24.484375 -22.097656 24.484375 -18.671875 C 24.484375 -16.359375 23.992188 -14.472656 23.015625 -13.015625 C 22.046875 -11.566406 20.566406 -10.515625 18.578125 -9.859375 L 25.46875 0 L 17.09375 0 L 11.25 -9.09375 Z M 17.421875 -18.671875 C 17.421875 -19.867188 17.054688 -20.707031 16.328125 -21.1875 C 15.609375 -21.675781 14.320312 -21.921875 12.46875 -21.921875 L 9.140625 -21.921875 L 9.140625 -14.71875 L 12.46875 -14.71875 C 14.320312 -14.71875 15.609375 -15.007812 16.328125 -15.59375 C 17.054688 -16.175781 17.421875 -17.203125 17.421875 -18.671875 Z M 17.421875 -18.671875 "/></g></g></g><g fill="#000000" fill-opacity="1"><g transform="translate(151.244529, 227.299761)"><g><path d="M 24.171875 -8.28125 C 24.171875 -5.425781 23.335938 -3.332031 21.671875 -2 C 20.003906 -0.664062 17.382812 0 13.8125 0 L 2.15625 0 L 2.15625 -28.21875 L 13.8125 -28.21875 C 17.050781 -28.21875 19.351562 -27.65625 20.71875 -26.53125 C 22.082031 -25.40625 22.765625 -23.519531 22.765625 -20.875 C 22.765625 -19.195312 22.539062 -17.914062 22.09375 -17.03125 C 21.644531 -16.144531 20.742188 -15.460938 19.390625 -14.984375 C 21.015625 -14.648438 22.21875 -13.925781 23 -12.8125 C 23.78125 -11.707031 24.171875 -10.195312 24.171875 -8.28125 Z M 16.328125 -19.84375 C 16.328125 -20.832031 16.140625 -21.519531 15.765625 -21.90625 C 15.390625 -22.300781 14.738281 -22.5 13.8125 -22.5 L 9.140625 -22.5 L 9.140625 -16.78125 L 13.8125 -16.78125 C 14.738281 -16.78125 15.390625 -17.015625 15.765625 -17.484375 C 16.140625 -17.953125 16.328125 -18.738281 16.328125 -19.84375 Z M 17.421875 -8.734375 C 17.421875 -9.804688 17.148438 -10.5625 16.609375 -11 C 16.066406 -11.4375 15.132812 -11.65625 13.8125 -11.65625 L 9.140625 -11.65625 L 9.140625 -5.9375 L 13.8125 -5.9375 C 15.132812 -5.9375 16.066406 -6.144531 16.609375 -6.5625 C 17.148438 -6.988281 17.421875 -7.710938 17.421875 -8.734375 Z M 17.421875 -8.734375 "/></g></g></g><g fill="#000000" fill-opacity="1"><g transform="translate(176.573026, 227.299761)"><g/></g></g><g fill="#000000" fill-opacity="1"><g transform="translate(183.501302, 227.299761)"><g><path d="M 12.875 -10.53125 L 7.15625 -11.875 C 4.875 -12.414062 3.320312 -13.238281 2.5 -14.34375 C 1.675781 -15.457031 1.265625 -17.050781 1.265625 -19.125 C 1.265625 -22.394531 2.125 -24.800781 3.84375 -26.34375 C 5.570312 -27.894531 8.25 -28.671875 11.875 -28.671875 C 13.375 -28.671875 14.707031 -28.609375 15.875 -28.484375 C 17.050781 -28.367188 18.132812 -28.160156 19.125 -27.859375 L 19.125 -21.59375 C 16.84375 -21.988281 15.273438 -22.210938 14.421875 -22.265625 C 13.566406 -22.328125 12.675781 -22.359375 11.75 -22.359375 C 10.488281 -22.359375 9.570312 -22.148438 9 -21.734375 C 8.425781 -21.316406 8.140625 -20.613281 8.140625 -19.625 C 8.140625 -19.144531 8.226562 -18.773438 8.40625 -18.515625 C 8.59375 -18.265625 8.941406 -18.078125 9.453125 -17.953125 L 14.84375 -16.6875 C 16.40625 -16.332031 17.53125 -15.984375 18.21875 -15.640625 C 18.914062 -15.296875 19.472656 -14.851562 19.890625 -14.3125 C 20.367188 -13.738281 20.71875 -13 20.9375 -12.09375 C 21.164062 -11.195312 21.28125 -10.101562 21.28125 -8.8125 C 21.28125 -5.550781 20.410156 -3.191406 18.671875 -1.734375 C 16.929688 -0.273438 14.234375 0.453125 10.578125 0.453125 C 8.710938 0.453125 6.941406 0.335938 5.265625 0.109375 C 3.585938 -0.109375 2.28125 -0.382812 1.34375 -0.71875 L 1.34375 -7.328125 C 2.550781 -6.941406 3.976562 -6.632812 5.625 -6.40625 C 7.269531 -6.1875 8.921875 -6.078125 10.578125 -6.078125 C 11.898438 -6.078125 12.8125 -6.238281 13.3125 -6.5625 C 13.820312 -6.894531 14.078125 -7.554688 14.078125 -8.546875 C 14.078125 -9.179688 13.992188 -9.640625 13.828125 -9.921875 C 13.671875 -10.203125 13.351562 -10.40625 12.875 -10.53125 Z M 12.875 -10.53125 "/></g></g></g><g fill="#000000" fill-opacity="1"><g transform="translate(205.770599, 227.299761)"><g><path d="M 26.5 -28.21875 L 26.5 0 L 19.84375 0 L 8.6875 -16.296875 L 8.6875 0 L 2.15625 0 L 2.15625 -28.21875 L 8.78125 -28.21875 L 19.984375 -11.296875 L 19.984375 -28.21875 Z M 26.5 -28.21875 "/></g></g></g><g fill="#000000" fill-opacity="1"><g transform="translate(234.698171, 227.299761)"><g><path d="M 7.203125 0 L -0.140625 0 L 10.3125 -28.21875 L 17.546875 -28.21875 L 27.71875 0 L 20.4375 0 L 18.9375 -4.71875 L 8.6875 -4.71875 Z M 13.765625 -21.28125 C 13.523438 -20.445312 13.265625 -19.554688 12.984375 -18.609375 C 12.703125 -17.660156 12.226562 -16.125 11.5625 -14 L 10.390625 -10.265625 L 17.1875 -10.265625 L 16.015625 -14 C 15.628906 -15.132812 15.238281 -16.335938 14.84375 -17.609375 C 14.457031 -18.890625 14.097656 -20.113281 13.765625 -21.28125 Z M 13.765625 -21.28125 "/></g></g></g><g fill="#000000" fill-opacity="1"><g transform="translate(262.635989, 227.299761)"><g><path d="M 9.140625 -7.921875 L 9.140625 0 L 2.15625 0 L 2.15625 -28.21875 L 12.46875 -28.21875 C 16.8125 -28.21875 19.898438 -27.457031 21.734375 -25.9375 C 23.566406 -24.425781 24.484375 -21.882812 24.484375 -18.3125 C 24.484375 -14.769531 23.515625 -12.148438 21.578125 -10.453125 C 19.640625 -8.765625 16.644531 -7.921875 12.59375 -7.921875 Z M 17.421875 -18.3125 C 17.421875 -19.632812 17.054688 -20.566406 16.328125 -21.109375 C 15.609375 -21.648438 14.320312 -21.921875 12.46875 -21.921875 L 9.140625 -21.921875 L 9.140625 -14.046875 L 12.46875 -14.046875 C 14.351562 -14.046875 15.648438 -14.359375 16.359375 -14.984375 C 17.066406 -15.617188 17.421875 -16.726562 17.421875 -18.3125 Z M 17.421875 -18.3125 "/></g></g></g><g clip-path="url(#30b2ee5ee4)"><path fill="#000000" d="M 190.289062 164.625 C 170.878906 164.625 155.089844 180.421875 155.089844 199.839844 C 155.089844 219.261719 170.878906 235.058594 190.289062 235.058594 C 193.707031 235.058594 197.089844 234.566406 200.34375 233.601562 L 199.003906 229.101562 C 196.1875 229.9375 193.253906 230.363281 190.289062 230.363281 C 173.46875 230.363281 159.785156 216.671875 159.785156 199.839844 C 159.785156 183.011719 173.46875 169.320312 190.289062 169.320312 C 207.105469 169.320312 220.792969 183.011719 220.792969 199.839844 C 220.792969 211.566406 213.949219 222.394531 203.359375 227.429688 L 205.371094 231.671875 C 217.589844 225.863281 225.484375 213.371094 225.484375 199.839844 C 225.484375 180.421875 209.695312 164.625 190.289062 164.625 Z M 190.289062 164.625 " fill-opacity="1" fill-rule="nonzero"/></g><g clip-path="url(#3c9ada62a2)"><path fill="#000000" d="M 190.289062 192.796875 C 186.40625 192.796875 183.25 195.957031 183.25 199.839844 C 183.25 203.726562 186.40625 206.886719 190.289062 206.886719 C 194.167969 206.886719 197.328125 203.726562 197.328125 199.839844 C 197.328125 195.957031 194.167969 192.796875 190.289062 192.796875 Z M 190.289062 202.1875 C 188.992188 202.1875 187.941406 201.136719 187.941406 199.839844 C 187.941406 198.546875 188.992188 197.492188 190.289062 197.492188 C 191.582031 197.492188 192.632812 198.546875 192.632812 199.839844 C 192.632812 201.136719 191.582031 202.1875 190.289062 202.1875 Z M 190.289062 202.1875 " fill-opacity="1" fill-rule="nonzero"/></g><g clip-path="url(#d664f9db71)"><path fill="#000000" d="M 190.289062 183.40625 C 181.234375 183.40625 173.863281 190.777344 173.863281 199.839844 C 173.863281 208.902344 181.234375 216.277344 190.289062 216.277344 C 199.34375 216.277344 206.710938 208.902344 206.710938 199.839844 C 206.710938 190.777344 199.34375 183.40625 190.289062 183.40625 Z M 190.289062 211.582031 C 183.820312 211.582031 178.554688 206.3125 178.554688 199.839844 C 178.554688 193.367188 183.820312 188.101562 190.289062 188.101562 C 196.757812 188.101562 202.019531 193.367188 202.019531 199.839844 C 202.019531 206.3125 196.757812 211.582031 190.289062 211.582031 Z M 190.289062 211.582031 " fill-opacity="1" fill-rule="nonzero"/></g><g clip-path="url(#20690a4b82)"><path fill="#000000" d="M 241.910156 155.234375 L 222.625 155.234375 L 220.152344 145.339844 C 218.84375 140.105469 214.164062 136.449219 208.769531 136.449219 L 171.804688 136.449219 C 166.410156 136.449219 161.730469 140.105469 160.421875 145.339844 L 157.953125 155.234375 L 150.398438 155.234375 L 150.398438 152.886719 C 150.398438 149 147.238281 145.839844 143.359375 145.839844 L 133.972656 145.839844 C 130.09375 145.839844 126.933594 149 126.933594 152.886719 L 126.933594 155.234375 L 119.894531 155.234375 C 113.425781 155.234375 108.164062 160.5 108.164062 166.972656 L 108.164062 232.710938 C 108.164062 239.183594 113.425781 244.449219 119.894531 244.449219 L 241.910156 244.449219 C 248.378906 244.449219 253.640625 239.183594 253.640625 232.710938 L 253.640625 166.972656 C 253.640625 160.5 248.378906 155.234375 241.910156 155.234375 Z M 161.617188 159.929688 L 164.972656 146.480469 C 165.761719 143.339844 168.570312 141.144531 171.804688 141.144531 L 208.769531 141.144531 C 212.007812 141.144531 214.816406 143.339844 215.601562 146.480469 L 218.957031 159.929688 L 241.910156 159.929688 C 245.789062 159.929688 248.949219 163.089844 248.949219 166.972656 L 248.949219 225.667969 L 226.570312 225.667969 C 227.929688 223.761719 229.128906 221.75 230.179688 219.636719 C 231.589844 220.472656 233.183594 220.972656 234.871094 220.972656 C 240.046875 220.972656 244.253906 216.761719 244.253906 211.582031 C 244.253906 206.402344 240.046875 202.1875 234.871094 202.1875 C 234.828125 202.1875 234.789062 202.199219 234.75 202.199219 C 234.792969 201.414062 234.871094 200.636719 234.871094 199.839844 C 234.871094 175.242188 214.871094 155.234375 190.289062 155.234375 C 165.703125 155.234375 145.707031 175.242188 145.707031 199.839844 C 145.707031 209.46875 148.800781 218.371094 154.003906 225.667969 L 136.320312 225.667969 L 136.320312 187.863281 C 141.667969 186.773438 145.707031 182.03125 145.707031 176.363281 L 145.707031 159.929688 Z M 234.246094 206.945312 C 234.453125 206.917969 234.660156 206.886719 234.871094 206.886719 C 237.457031 206.886719 239.5625 208.992188 239.5625 211.582031 C 239.5625 214.171875 237.457031 216.277344 234.871094 216.277344 C 233.839844 216.277344 232.863281 215.917969 232.054688 215.292969 C 233.046875 212.621094 233.78125 209.832031 234.246094 206.945312 Z M 190.289062 239.753906 C 168.292969 239.753906 150.398438 221.851562 150.398438 199.839844 C 150.398438 177.832031 168.292969 159.929688 190.289062 159.929688 C 212.28125 159.929688 230.175781 177.832031 230.175781 199.839844 C 230.175781 221.851562 212.28125 239.753906 190.289062 239.753906 Z M 112.855469 188.101562 L 131.625 188.101562 L 131.625 225.667969 L 112.855469 225.667969 Z M 131.625 152.886719 C 131.625 151.589844 132.679688 150.539062 133.972656 150.539062 L 143.359375 150.539062 C 144.652344 150.539062 145.707031 151.589844 145.707031 152.886719 L 145.707031 155.234375 L 131.625 155.234375 Z M 119.894531 159.929688 L 141.011719 159.929688 L 141.011719 176.363281 C 141.011719 180.246094 137.855469 183.40625 133.972656 183.40625 L 112.855469 183.40625 L 112.855469 166.972656 C 112.855469 163.089844 116.011719 159.929688 119.894531 159.929688 Z M 119.894531 239.753906 C 116.011719 239.753906 112.855469 236.59375 112.855469 232.710938 L 112.855469 230.363281 L 157.863281 230.363281 C 161.472656 234.195312 165.742188 237.382812 170.496094 239.753906 Z M 241.910156 239.753906 L 210.078125 239.753906 C 214.832031 237.382812 219.105469 234.195312 222.710938 230.363281 L 248.949219 230.363281 L 248.949219 232.710938 C 248.949219 236.59375 245.789062 239.753906 241.910156 239.753906 Z M 241.910156 239.753906 " fill-opacity="1" fill-rule="nonzero"/></g><path fill="#000000" d="M 122.242188 178.710938 L 131.625 178.710938 C 134.214844 178.710938 136.320312 176.605469 136.320312 174.015625 L 136.320312 169.320312 C 136.320312 166.730469 134.214844 164.625 131.625 164.625 L 122.242188 164.625 C 119.652344 164.625 117.546875 166.730469 117.546875 169.320312 L 117.546875 174.015625 C 117.546875 176.605469 119.652344 178.710938 122.242188 178.710938 Z M 122.242188 169.320312 L 131.625 169.320312 L 131.628906 174.015625 L 122.242188 174.015625 Z M 122.242188 169.320312 " fill-opacity="1" fill-rule="nonzero"/><path fill="#000000" d="M 171.515625 145.839844 L 209.058594 145.839844 L 209.058594 150.539062 L 171.515625 150.539062 Z M 171.515625 145.839844 " fill-opacity="1" fill-rule="nonzero"/><path fill="#000000" d="M 237.214844 178.710938 C 241.097656 178.710938 244.253906 175.550781 244.253906 171.667969 C 244.253906 167.785156 241.097656 164.625 237.214844 164.625 C 233.335938 164.625 230.175781 167.785156 230.175781 171.667969 C 230.175781 175.550781 233.335938 178.710938 237.214844 178.710938 Z M 237.214844 169.320312 C 238.511719 169.320312 239.5625 170.375 239.5625 171.667969 C 239.5625 172.960938 238.511719 174.015625 237.214844 174.015625 C 235.921875 174.015625 234.871094 172.960938 234.871094 171.667969 C 234.871094 170.375 235.921875 169.320312 237.214844 169.320312 Z M 237.214844 169.320312 " fill-opacity="1" fill-rule="nonzero"/></svg>