<svg xmlns="http://www.w3.org/2000/svg" xmlns:xlink="http://www.w3.org/1999/xlink" width="200" zoomAndPan="magnify" viewBox="0 0 150 149.999998" height="200" preserveAspectRatio="xMidYMid meet" version="1.0"><defs><clipPath id="a899d6ebdb"><path d="M 0 45 L 69.3125 45 L 69.3125 123.8125 L 0 123.8125 Z M 0 45 " clip-rule="nonzero"/></clipPath><clipPath id="35fb5a460e"><path d="M 6 26.1875 L 20 26.1875 L 20 40 L 6 40 Z M 6 26.1875 " clip-rule="nonzero"/></clipPath><clipPath id="2d65e75b86"><path d="M 21 26.1875 L 34 26.1875 L 34 40 L 21 40 Z M 21 26.1875 " clip-rule="nonzero"/></clipPath><clipPath id="6294c4a93c"><path d="M 35 26.1875 L 51 26.1875 L 51 40 L 35 40 Z M 35 26.1875 " clip-rule="nonzero"/></clipPath><clipPath id="f898ce0141"><path d="M 52 26.1875 L 63 26.1875 L 63 40 L 52 40 Z M 52 26.1875 " clip-rule="nonzero"/></clipPath><clipPath id="370164671f"><path d="M 80.777344 45 L 150 45 L 150 123.8125 L 80.777344 123.8125 Z M 80.777344 45 " clip-rule="nonzero"/></clipPath><clipPath id="b809b12c00"><path d="M 97 26.1875 L 108 26.1875 L 108 40 L 97 40 Z M 97 26.1875 " clip-rule="nonzero"/></clipPath><clipPath id="91b1e77f31"><path d="M 109 26.1875 L 121 26.1875 L 121 40 L 109 40 Z M 109 26.1875 " clip-rule="nonzero"/></clipPath><clipPath id="3bc4d257fd"><path d="M 122 26.1875 L 133 26.1875 L 133 40 L 122 40 Z M 122 26.1875 " clip-rule="nonzero"/></clipPath></defs><rect x="-15" width="180" fill="#ffffff" y="-15" height="179.999997" fill-opacity="1"/><rect x="-15" width="180" fill="#ffffff" y="-15" height="179.999997" fill-opacity="1"/><rect x="-15" width="180" fill="#ffffff" y="-15" height="179.999997" fill-opacity="1"/><g clip-path="url(#a899d6ebdb)"><path fill="#e44d26" d="M 69.296875 45.371094 L 62.988281 115.957031 L 34.625 123.808594 L 6.347656 115.96875 L 0.0429688 45.371094 Z M 69.296875 45.371094 " fill-opacity="1" fill-rule="nonzero"/></g><path fill="#f16529" d="M 34.671875 117.808594 L 57.585938 111.464844 L 62.976562 51.144531 L 34.671875 51.144531 Z M 34.671875 117.808594 " fill-opacity="1" fill-rule="nonzero"/><path fill="#ebebeb" d="M 22.40625 68.460938 L 34.671875 68.460938 L 34.671875 59.800781 L 12.929688 59.800781 L 13.136719 62.125 L 15.269531 85.984375 L 34.671875 85.984375 L 34.671875 77.328125 L 23.199219 77.328125 Z M 22.40625 68.460938 " fill-opacity="1" fill-rule="nonzero"/><path fill="#ebebeb" d="M 24.359375 90.316406 L 15.65625 90.316406 L 16.871094 103.910156 L 34.628906 108.832031 L 34.671875 108.824219 L 34.671875 99.8125 L 34.632812 99.824219 L 24.976562 97.21875 Z M 24.359375 90.316406 " fill-opacity="1" fill-rule="nonzero"/><g clip-path="url(#35fb5a460e)"><path fill="#000000" d="M 6.488281 26.1875 L 10.894531 26.1875 L 10.894531 30.535156 L 14.921875 30.535156 L 14.921875 26.1875 L 19.328125 26.1875 L 19.328125 39.351562 L 14.921875 39.351562 L 14.921875 34.945312 L 10.894531 34.945312 L 10.894531 39.351562 L 6.488281 39.351562 Z M 6.488281 26.1875 " fill-opacity="1" fill-rule="nonzero"/></g><g clip-path="url(#2d65e75b86)"><path fill="#000000" d="M 25.125 30.554688 L 21.246094 30.554688 L 21.246094 26.1875 L 33.410156 26.1875 L 33.410156 30.554688 L 29.527344 30.554688 L 29.527344 39.351562 L 25.125 39.351562 Z M 25.125 30.554688 " fill-opacity="1" fill-rule="nonzero"/></g><g clip-path="url(#6294c4a93c)"><path fill="#000000" d="M 35.339844 26.1875 L 39.933594 26.1875 L 42.757812 30.8125 L 45.582031 26.1875 L 50.179688 26.1875 L 50.179688 39.351562 L 45.792969 39.351562 L 45.792969 32.828125 L 42.757812 37.507812 L 42.683594 37.507812 L 39.652344 32.828125 L 39.652344 39.351562 L 35.339844 39.351562 Z M 35.339844 26.1875 " fill-opacity="1" fill-rule="nonzero"/></g><g clip-path="url(#f898ce0141)"><path fill="#000000" d="M 52.371094 26.1875 L 56.777344 26.1875 L 56.777344 35 L 62.976562 35 L 62.976562 39.351562 L 52.371094 39.351562 Z M 52.371094 26.1875 " fill-opacity="1" fill-rule="nonzero"/></g><path fill="#ffffff" d="M 34.640625 85.984375 L 45.316406 85.984375 L 44.308594 97.214844 L 34.640625 99.820312 L 34.640625 108.828125 L 52.414062 103.910156 L 52.542969 102.445312 L 54.582031 79.652344 L 54.792969 77.328125 L 34.640625 77.328125 Z M 34.640625 85.984375 " fill-opacity="1" fill-rule="nonzero"/><path fill="#ffffff" d="M 34.640625 68.4375 L 34.640625 68.460938 L 55.582031 68.460938 L 55.753906 66.515625 L 56.152344 62.125 L 56.355469 59.800781 L 34.640625 59.800781 Z M 34.640625 68.4375 " fill-opacity="1" fill-rule="nonzero"/><g clip-path="url(#370164671f)"><path fill="#264de4" d="M 115.402344 123.808594 L 87.121094 115.96875 L 80.820312 45.375 L 150.070312 45.371094 L 143.761719 115.957031 Z M 115.402344 123.808594 " fill-opacity="1" fill-rule="nonzero"/></g><path fill="#2965f1" d="M 138.363281 111.464844 L 143.753906 51.144531 L 115.445312 51.144531 L 115.445312 117.804688 L 138.363281 111.460938 Z M 138.363281 111.464844 " fill-opacity="1" fill-rule="nonzero"/><path fill="#ebebeb" d="M 95.269531 77.328125 L 96.042969 85.984375 L 115.445312 85.984375 L 115.445312 77.328125 Z M 95.269531 77.328125 " fill-opacity="1" fill-rule="nonzero"/><path fill="#ebebeb" d="M 93.707031 59.800781 L 94.496094 68.460938 L 115.445312 68.460938 L 115.445312 59.800781 Z M 93.707031 59.800781 " fill-opacity="1" fill-rule="nonzero"/><path fill="#ebebeb" d="M 115.445312 99.8125 L 115.40625 99.824219 L 105.753906 97.21875 L 105.136719 90.316406 L 96.433594 90.316406 L 97.648438 103.910156 L 115.40625 108.832031 L 115.445312 108.824219 Z M 115.445312 99.8125 " fill-opacity="1" fill-rule="nonzero"/><g clip-path="url(#b809b12c00)"><path fill="#000000" d="M 97.117188 26.1875 L 107.617188 26.1875 L 107.617188 30.574219 L 101.507812 30.574219 L 101.507812 34.957031 L 107.617188 34.957031 L 107.617188 39.34375 L 97.117188 39.34375 Z M 97.117188 26.1875 " fill-opacity="1" fill-rule="nonzero"/></g><g clip-path="url(#91b1e77f31)"><path fill="#000000" d="M 109.71875 26.1875 L 120.21875 26.1875 L 120.21875 30 L 114.109375 30 L 114.109375 30.765625 L 120.21875 30.765625 L 120.21875 39.535156 L 109.71875 39.535156 L 109.71875 35.53125 L 115.828125 35.53125 L 115.828125 34.769531 L 109.71875 34.769531 Z M 109.71875 26.1875 " fill-opacity="1" fill-rule="nonzero"/></g><g clip-path="url(#3bc4d257fd)"><path fill="#000000" d="M 122.320312 26.1875 L 132.820312 26.1875 L 132.820312 30 L 126.707031 30 L 126.707031 30.765625 L 132.820312 30.765625 L 132.820312 39.535156 L 122.320312 39.535156 L 122.320312 35.53125 L 128.425781 35.53125 L 128.425781 34.769531 L 122.320312 34.769531 Z M 122.320312 26.1875 " fill-opacity="1" fill-rule="nonzero"/></g><path fill="#ffffff" d="M 135.570312 77.328125 L 137.132812 59.800781 L 115.414062 59.800781 L 115.414062 68.460938 L 127.632812 68.460938 L 126.84375 77.328125 L 115.414062 77.328125 L 115.414062 85.984375 L 126.09375 85.984375 L 125.085938 97.214844 L 115.414062 99.820312 L 115.414062 108.828125 L 133.1875 103.910156 L 133.320312 102.445312 L 135.355469 79.652344 Z M 135.570312 77.328125 " fill-opacity="1" fill-rule="nonzero"/></svg>