<svg xmlns="http://www.w3.org/2000/svg" xmlns:xlink="http://www.w3.org/1999/xlink" width="200" zoomAndPan="magnify" viewBox="0 0 150 149.999998" height="200" preserveAspectRatio="xMidYMid meet" version="1.0"><defs><clipPath id="eeb7066a48"><path d="M 15 47.589844 L 35 47.589844 L 35 80 L 15 80 Z M 15 47.589844 " clip-rule="nonzero"/></clipPath><clipPath id="cecf95cd3d"><path d="M 55 53 L 147.421875 53 L 147.421875 102.339844 L 55 102.339844 Z M 55 53 " clip-rule="nonzero"/></clipPath></defs><path fill="#4e7896" d="M 15.390625 89.253906 C 15.390625 89.253906 13.324219 90.511719 16.828125 90.871094 C 21.050781 91.40625 23.296875 91.316406 27.96875 90.421875 C 28.910156 90.996094 29.898438 91.476562 30.933594 91.855469 C 20.421875 96.34375 7.125 91.589844 15.390625 89.253906 Z M 14.042969 83.417969 C 14.042969 83.417969 11.796875 85.125 15.300781 85.484375 C 19.882812 85.929688 23.476562 86.019531 29.679688 84.765625 C 30.289062 85.386719 31.007812 85.835938 31.835938 86.113281 C 19.167969 89.882812 4.96875 86.46875 14.042969 83.417969 Z M 38.84375 93.652344 C 38.84375 93.652344 40.371094 94.90625 37.132812 95.894531 C 31.113281 97.691406 11.886719 98.230469 6.496094 95.894531 C 4.609375 95.089844 8.203125 93.921875 9.371094 93.742188 C 10.539062 93.472656 11.167969 93.472656 11.167969 93.472656 C 9.101562 92.039062 -2.578125 96.433594 5.226562 97.691406 C 26.699219 101.191406 44.402344 96.167969 38.832031 93.652344 Z M 16.378906 77.316406 C 16.378906 77.316406 6.585938 79.648438 12.875 80.457031 C 15.570312 80.816406 20.871094 80.726562 25.8125 80.367188 C 29.855469 80.007812 33.898438 79.289062 33.898438 79.289062 C 33.898438 79.289062 32.460938 79.917969 31.472656 80.546875 C 21.5 83.148438 2.359375 81.980469 7.839844 79.289062 C 12.515625 77.046875 16.375 77.316406 16.375 77.316406 Z M 33.902344 87.097656 C 43.964844 81.890625 39.296875 76.867188 36.058594 77.496094 C 35.253906 77.671875 34.890625 77.851562 34.890625 77.851562 C 34.890625 77.851562 35.160156 77.316406 35.789062 77.136719 C 42.167969 74.890625 47.199219 83.867188 33.722656 87.367188 C 33.722656 87.367188 33.8125 87.277344 33.902344 87.101562 Z M 17.367188 101.28125 C 27.074219 101.90625 41.898438 100.921875 42.257812 96.34375 C 42.257812 96.34375 41.539062 98.136719 34.261719 99.484375 C 25.992188 101.011719 15.761719 100.832031 9.730469 99.84375 C 9.730469 99.84375 10.988281 100.921875 17.367188 101.277344 Z M 17.367188 101.28125 " fill-opacity="1" fill-rule="nonzero"/><g clip-path="url(#eeb7066a48)"><path fill="#f58219" d="M 27.789062 47.695312 C 27.789062 47.695312 33.363281 53.351562 22.488281 61.878906 C 13.773438 68.789062 20.511719 72.738281 22.488281 77.226562 C 17.367188 72.648438 13.683594 68.609375 16.210938 64.839844 C 19.882812 59.277344 30.039062 56.582031 27.789062 47.695312 Z M 24.914062 73.457031 C 27.519531 76.417969 24.199219 79.113281 24.199219 79.113281 C 24.199219 79.113281 30.84375 75.699219 27.792969 71.480469 C 25.003906 67.441406 22.851562 65.46875 34.53125 58.738281 C 34.53125 58.738281 16.109375 63.316406 24.914062 73.457031 Z M 24.914062 73.457031 " fill-opacity="1" fill-rule="nonzero"/></g><g clip-path="url(#cecf95cd3d)"><path fill="#4e7896" d="M 94.144531 92.023438 L 94.144531 71.660156 C 94.144531 66.460938 91.230469 62.929688 83.949219 62.929688 C 79.789062 62.929688 76.253906 63.96875 73.132812 65.214844 L 74.171875 68.957031 C 76.457031 68.125 79.375 67.292969 82.492188 67.292969 C 86.445312 67.292969 88.320312 68.957031 88.320312 72.28125 L 88.320312 74.980469 L 86.238281 74.980469 C 76.253906 74.980469 71.664062 78.722656 71.664062 84.75 C 71.664062 89.738281 74.785156 92.648438 80.402344 92.648438 C 83.9375 92.648438 86.644531 90.984375 89.140625 88.90625 L 89.554688 92.023438 Z M 88.320312 85.375 C 86.238281 87.246094 83.949219 88.285156 81.867188 88.285156 C 79.164062 88.285156 77.5 86.621094 77.5 83.710938 C 77.5 80.800781 79.164062 78.722656 85.820312 78.722656 L 88.320312 78.722656 Z M 113.699219 92.023438 L 106.417969 92.023438 L 97.6875 63.554688 L 103.929688 63.554688 L 109.335938 81.011719 L 110.585938 86.207031 C 113.289062 78.726562 115.371094 71.035156 116.203125 63.554688 L 122.441406 63.554688 C 120.777344 72.90625 117.867188 83.089844 113.707031 92.027344 Z M 147.402344 92.023438 L 147.402344 71.660156 C 147.402344 66.460938 144.488281 62.929688 137.207031 62.929688 C 133.046875 62.929688 129.511719 63.96875 126.390625 65.214844 L 127.222656 68.957031 C 129.71875 68.125 132.628906 67.292969 135.75 67.292969 C 139.703125 67.292969 141.574219 68.957031 141.574219 72.28125 L 141.574219 74.980469 L 139.496094 74.980469 C 129.507812 74.980469 124.921875 78.722656 124.921875 84.75 C 124.921875 89.738281 127.832031 92.648438 133.449219 92.648438 C 137.195312 92.648438 139.898438 90.984375 142.394531 88.90625 L 142.8125 92.023438 Z M 141.578125 85.375 C 139.496094 87.246094 137.207031 88.285156 135.125 88.285156 C 132.421875 88.285156 130.757812 86.621094 130.757812 83.710938 C 130.757812 80.800781 132.421875 78.722656 139.078125 78.722656 L 141.578125 78.722656 Z M 65.234375 96.804688 C 63.570312 99.296875 61.074219 101.167969 57.953125 102.207031 L 55.246094 98.882812 C 57.328125 97.632812 59.410156 95.765625 60.242188 94.101562 C 61.074219 92.644531 61.28125 90.566406 61.28125 85.789062 L 61.28125 53.367188 L 67.523438 53.367188 L 67.523438 85.371094 C 67.523438 91.816406 66.898438 94.308594 65.234375 96.800781 Z M 65.234375 96.804688 " fill-opacity="1" fill-rule="nonzero"/></g></svg>